<?xml version="1.0" encoding="utf-8"?>
<svg xmlns="http://www.w3.org/2000/svg" width="440" height="260" viewBox="0 0 440 260">
  <rect width="440" height="260" rx="14" fill="#112240"/>
  <rect x="0.5" y="0.5" width="439" height="259" rx="14" fill="none" stroke="#233554" stroke-width="1"/>

  <!-- Title -->
  <text x="24" y="32" font-size="16">📊</text>
  <text x="48" y="30" font-family="'Fira Code', monospace" font-size="12" fill="#64ffda">Machine Learning &amp; Data Science</text>

  <!-- Pills -->
  <g font-family="'Inter', system-ui, sans-serif" font-size="13" fill="#ccd6f6">
    <rect x="24" y="50" width="88" height="30" rx="15" fill="none" stroke="#233554" stroke-width="1"/>
    <circle cx="44" cy="65" r="5" fill="#013243"/>
    <text x="56" y="69">NumPy</text>

    <rect x="122" y="50" width="96" height="30" rx="15" fill="none" stroke="#233554" stroke-width="1"/>
    <circle cx="142" cy="65" r="5" fill="#150458"/>
    <text x="154" y="69">Pandas</text>

    <rect x="228" y="50" width="118" height="30" rx="15" fill="none" stroke="#233554" stroke-width="1"/>
    <circle cx="248" cy="65" r="5" fill="#11557c"/>
    <text x="260" y="69">Matplotlib</text>

    <rect x="24" y="92" width="120" height="30" rx="15" fill="none" stroke="#233554" stroke-width="1"/>
    <circle cx="44" cy="107" r="5" fill="#F7931E"/>
    <text x="56" y="111">Scikit-learn</text>

    <rect x="154" y="92" width="130" height="30" rx="15" fill="none" stroke="#233554" stroke-width="1"/>
    <circle cx="174" cy="107" r="5" fill="#64ffda"/>
    <text x="186" y="111">Data Analysis</text>

    <rect x="294" y="92" width="130" height="30" rx="15" fill="none" stroke="#233554" stroke-width="1"/>
    <circle cx="314" cy="107" r="5" fill="#f6c177"/>
    <text x="326" y="111">Model Building</text>
  </g>

  <!-- Separator -->
  <rect x="24" y="140" width="395" height="1" fill="#233554" opacity="0.5"/>

  <!-- Tagline -->
  <text x="24" y="168" font-family="'Inter', system-ui, sans-serif" font-size="13" fill="#8892b0" font-style="italic">Turning data into actionable insights.</text>
</svg>
