<?xml version="1.0" encoding="utf-8"?>
<svg xmlns="http://www.w3.org/2000/svg" width="440" height="260" viewBox="0 0 440 260">
  <rect width="440" height="260" rx="14" fill="#112240"/>
  <rect x="0.5" y="0.5" width="439" height="259" rx="14" fill="none" stroke="#233554" stroke-width="1"/>

  <!-- Title -->
  <text x="24" y="32" font-size="16">🎨</text>
  <text x="48" y="30" font-family="'Fira Code', monospace" font-size="12" fill="#64ffda">Frontend Development</text>

  <!-- Pills -->
  <g font-family="'Inter', system-ui, sans-serif" font-size="13" fill="#ccd6f6">
    <rect x="24" y="50" width="90" height="30" rx="15" fill="none" stroke="#233554" stroke-width="1"/>
    <circle cx="44" cy="65" r="5" fill="#E34F26"/>
    <text x="56" y="69">HTML5</text>

    <rect x="124" y="50" width="80" height="30" rx="15" fill="none" stroke="#233554" stroke-width="1"/>
    <circle cx="144" cy="65" r="5" fill="#1572B6"/>
    <text x="156" y="69">CSS3</text>

    <rect x="214" y="50" width="150" height="30" rx="15" fill="none" stroke="#233554" stroke-width="1"/>
    <circle cx="234" cy="65" r="5" fill="#F7DF1E"/>
    <text x="246" y="69">JavaScript (ES6+)</text>

    <rect x="24" y="92" width="100" height="30" rx="15" fill="none" stroke="#233554" stroke-width="1"/>
    <circle cx="44" cy="107" r="5" fill="#61DAFB"/>
    <text x="56" y="111">React.js</text>

    <rect x="134" y="92" width="168" height="30" rx="15" fill="none" stroke="#233554" stroke-width="1"/>
    <circle cx="154" cy="107" r="5" fill="#64ffda"/>
    <text x="166" y="111">Responsive UI Design</text>
  </g>

  <!-- Separator -->
  <rect x="24" y="140" width="395" height="1" fill="#233554" opacity="0.5"/>

  <!-- Tagline -->
  <text x="24" y="168" font-family="'Inter', system-ui, sans-serif" font-size="13" fill="#8892b0" font-style="italic">Building clean, modern, and intuitive interfaces.</text>
</svg>
